<svg width="78" height="36" viewBox="0 0 78 36" fill="none" xmlns="http://www.w3.org/2000/svg">
<path fill-rule="evenodd" clip-rule="evenodd" d="M1 18.3268H14.9781L13.2483 15.3397C12.9023 14.7434 12.2634 14.3756 11.5727 14.3756H7.86444L11.032 8.90373L22.5114 28.7386L30.8279 14.3756H26.2514L22.5114 20.8358L11.032 1L1 18.3268Z" fill="url(#paint0_linear_1304_54478)"/>
<path fill-rule="evenodd" clip-rule="evenodd" d="M66.9081 16.7358H69.5269V14.125H66.9081V16.7358ZM59.8639 26.1192C58.3335 26.1192 57.0884 24.8782 57.0884 23.3523C57.0884 21.8268 58.3335 20.5853 59.8639 20.5853C61.3938 20.5853 62.6389 21.8268 62.6389 23.3523C62.6389 24.8782 61.3938 26.1192 59.8639 26.1192ZM59.8639 17.9746C58.7878 17.9746 57.7857 18.2917 56.9432 18.8346V14.1257H54.3248V28.4607H56.9432V27.8695C57.7857 28.4129 58.7878 28.73 59.8639 28.73C62.8378 28.73 65.2568 26.3175 65.2568 23.3523C65.2568 20.387 62.8378 17.9746 59.8639 17.9746ZM76.9999 18.0348V19.3501C76.9999 20.0653 76.4179 20.6446 75.7011 20.6446H74.3815V23.9753C74.3815 25.0198 75.2303 25.8666 76.2779 25.8666H76.9999V28.4769H76.2779C73.7844 28.4769 71.7636 26.4611 71.7636 23.9753V14.1258H73.0828C73.8 14.1258 74.3815 14.7056 74.3815 15.4207V18.0348H76.9999ZM42.8733 28.477H52.3319V27.1266C52.3319 26.4309 51.7656 25.8657 51.0669 25.8657H47.6577L52.6856 18.0349H43.5146V20.6452H47.9012L42.8733 28.477ZM69.5264 28.4889H66.9076V18.0345H69.5264V28.4889ZM35.507 19.0767L33.7487 23.3681H37.1717L35.507 19.0767ZM41.9608 28.477H40.3976C39.6481 28.477 38.9755 28.017 38.7044 27.3202L38.1386 25.8658H32.7253L31.6558 28.477H28.8276L34.3283 14.9376C34.53 14.4459 35.0081 14.1259 35.5397 14.1259C36.0804 14.1259 36.5664 14.4572 36.7611 14.9594L41.9608 28.477Z" fill="url(#paint1_linear_1304_54478)"/>
<defs>
<linearGradient id="paint0_linear_1304_54478" x1="1" y1="1" x2="34.1028" y2="5.70693" gradientUnits="userSpaceOnUse">
<stop stop-color="#1AA773"/>
<stop offset="1" stop-color="#1FCC98"/>
</linearGradient>
<linearGradient id="paint1_linear_1304_54478" x1="52.9138" y1="14.125" x2="52.9138" y2="28.73" gradientUnits="userSpaceOnUse">
<stop stop-color="#262728"/>
<stop offset="1" stop-color="#3C3E40"/>
</linearGradient>
</defs>
</svg>
